PathFileType	4	(X/Y/Z)	/Users/niels/Desktop/University/Third Semester/Perception and Action/Exam/Gymnastics Motion Tracking/Code for Gym Tracking/Analyzed Data/Webcam_Backflip/id5_5_baseline_Sports2D/id5_5_baseline_Sports2D_px_person00.trc
DataRate	CameraRate	NumFrames	NumMarkers	Units	OrigDataRate	OrigDataStartFrame	OrigNumFrames
29.81132075471698	29.81132075471698	7	22	m	29.81132075471698	19	159
Frame#	Time	Hip			RHip			RKnee			RAnkle			RBigToe			RSmallToe			RHeel			LHip			LKnee			LAnkle			LBigToe			LSmallToe			LHeel			Neck			Head			Nose			RShoulder			RElbow			RWrist			LShoulder			LElbow			LWrist		
		X1	Y1	Z1	X2	Y2	Z2	X3	Y3	Z3	X4	Y4	Z4	X5	Y5	Z5	X6	Y6	Z6	X7	Y7	Z7	X8	Y8	Z8	X9	Y9	Z9	X10	Y10	Z10	X11	Y11	Z11	X12	Y12	Z12	X13	Y13	Z13	X14	Y14	Z14	X15	Y15	Z15	X16	Y16	Z16	X17	Y17	Z17	X18	Y18	Z18	X19	Y19	Z19	X20	Y20	Z20	X21	Y21	Z21	X22	Y22	Z22
19	0.6373417721518987	0.933270332261757	-0.6126090382504087	0.0	0.9301426315588506	-0.6122946939672392	0.0	1.0051947880881367	-0.6864460185088814	0.0	0.9605613869104244	-0.7832874675665799	0.0	1.0001523846096523	-0.8004984688508132	0.0	0.9906454324489732	-0.8038731055548012	0.0	0.9488595405341419	-0.7953551923549269	0.0	0.9371820626998828	-0.6102948874283981	0.0	1.0034450239557189	-0.6836874239652465	0.0	0.9620868227907831	-0.7767743725031094	0.0	1.0042049026930737	-0.7962290652964232	0.0	0.9985037365246917	-0.7929361879775035	0.0	0.9449062231021235	-0.7885212204592166	0.0	0.9847322388266304	-0.4799094911681234	0.0	1.0157454130302184	-0.41890415151233945	0.0	1.0236888925583754	-0.45079935877164073	0.0	0.9769793307505308	-0.4969224277610483	0.0	0.9636132097301229	-0.5532238635867959	0.0	0.9652080654760695	-0.5973380425319345	0.0	0.9759182702955965	-0.4928652759619028	0.0	0.961805374285231	-0.5459977144830183	0.0	0.9708458609976098	-0.5875094610038313	0.0
20	0.6708860759493671	0.9338630236333607	-0.6306662307324217	0.0	0.9308489023938805	-0.6310738915234128	0.0	1.0053841351313924	-0.7051601251216011	0.0	0.9615312381047145	-0.801015549644147	0.0	1.0000247345229436	-0.8179542598397174	0.0	0.9920690014822936	-0.8206320007612796	0.0	0.9501331780965621	-0.8118797814379929	0.0	0.938245014393916	-0.6291856536492852	0.0	1.0040083279746206	-0.7027221678818423	0.0	0.9627878301759363	-0.7947401943690618	0.0	1.0056780403548422	-0.8110941229730119	0.0	0.99938233077129	-0.8084405115717875	0.0	0.9457148693288	-0.8050595254536567	0.0	0.9786077983747175	-0.4947163605591308	0.0	1.00571488521664	-0.43267719958080303	0.0	1.0156663281522573	-0.4656257719767317	0.0	0.9718790399744323	-0.5119850268544218	0.0	0.9815433620584983	-0.5669342775513568	0.0	1.0037507803347314	-0.6022860592697447	0.0	0.9704950117532699	-0.5082955033300584	0.0	0.9788103306375496	-0.5594662317852293	0.0	1.0048617940710867	-0.5924725806098591	0.0
21	0.7044303797468354	0.9352342154360598	-0.6464725328256898	0.0	0.9323724802970965	-0.6477693291420604	0.0	1.0036660315074608	-0.7243414076899214	0.0	0.9623638324081277	-0.8191627042628844	0.0	0.9992724919371981	-0.836027605031749	0.0	0.992597773106191	-0.8381931655668287	0.0	0.9512374135599492	-0.829000976496134	0.0	0.9395089719272027	-0.6458658030159959	0.0	1.002031210121577	-0.7222599909068544	0.0	0.9631824689205017	-0.813043158712104	0.0	1.0056858755474813	-0.8252370294887978	0.0	0.9990005807746352	-0.8236902774233417	0.0	0.9461803031951506	-0.8217322815384845	0.0	0.9709535554468076	-0.5072945049774382	0.0	0.9945163407038536	-0.443817385573793	0.0	1.0059770397500205	-0.4779720325876952	0.0	0.9659120233987604	-0.5234533283863325	0.0	0.9971190120314629	-0.567340121392673	0.0	1.0335555233548264	-0.5863267588121145	0.0	0.9633634925790009	-0.52035895896249	0.0	0.9936865891151427	-0.5608525752518561	0.0	1.03133464111204	-0.5785832663174894	0.0
22	0.7379746835443037	0.9372507188076616	-0.6572647470716715	0.0	0.9346325599754006	-0.6594052600543361	0.0	1.0000663322842345	-0.7406523003368756	0.0	0.9627759806060281	-0.83469981776152	0.0	0.997653350439955	-0.8515486805421396	0.0	0.9913446859968357	-0.85347160167149	0.0	0.9519196923155845	-0.8439052302713229	0.0	0.9411175610686446	-0.6574623775045421	0.0	0.9979045865107741	-0.738915391779002	0.0	0.9631948706895835	-0.8287419012667744	0.0	1.003868557473042	-0.8370020010705722	0.0	0.9972660780249887	-0.8367920451616532	0.0	0.9462026135059038	-0.835947026087369	0.0	0.962455721722882	-0.5154921809549606	0.0	0.9823649881627685	-0.4507055109877713	0.0	0.9948355967355148	-0.48563283626326226	0.0	0.9591903947776987	-0.5292862695820207	0.0	1.0059965257272163	-0.5534271894855329	0.0	1.0467582264601472	-0.5522628172765891	0.0	0.9551527541880481	-0.5270187815708569	0.0	1.002215214837306	-0.5494085293580708	0.0	1.0431238981870397	-0.5483120160735976	0.0
23	0.7715189873417722	0.9397797973620118	-0.6604976957300164	0.0	0.937567706544643	-0.6632628778191201	0.0	0.9949158883682606	-0.7507565375070336	0.0	0.9626122551518767	-0.8448729717222994	0.0	0.9947950206304847	-0.8614610754353554	0.0	0.9877860479602155	-0.8633439333577859	0.0	0.9521455361826304	-0.8539138540969781	0.0	0.9432035129945132	-0.6613794704543632	0.0	0.9923121845409683	-0.749287443007457	0.0	0.9628072603037969	-0.8391967229786836	0.0	1.0000453951396688	-0.8450811463162098	0.0	0.9940141213769742	-0.8461288102321067	0.0	0.9459824481853444	-0.8453270209488913	0.0	0.9535553562224446	-0.5172137007539526	0.0	0.9689348537689492	-0.451591364521145	0.0	0.9822070255697812	-0.4864271697122407	0.0	0.9515106013838597	-0.5279012829400551	0.0	1.0047206530385326	-0.5273864692128605	0.0	1.0397153585276955	-0.5070694970969607	0.0	0.9465790526589013	-0.5266370459034955	0.0	1.0014953001738631	-0.5272774170199388	0.0	1.036792644535058	-0.5080774771943161	0.0
24	0.8050632911392405	0.9425986645255251	-0.6544445350137922	0.0	0.9409564571540865	-0.657546702277164	0.0	0.989042643749279	-0.7519882602448189	0.0	0.9620168037250834	-0.8475181322871057	0.0	0.990632376400882	-0.8637952078687342	0.0	0.9823351485780764	-0.8656846701140758	0.0	0.9521811898006455	-0.8568038596603352	0.0	0.9456347388798717	-0.6558886415296633	0.0	0.9862096075197093	-0.7506830923576393	0.0	0.9621317031176595	-0.8423058497499225	0.0	0.994457010687468	-0.8482594680878727	0.0	0.9893484452762635	-0.8502457962753133	0.0	0.9459062502319606	-0.8479662216639935	0.0	0.9442592113872186	-0.5110405771517318	0.0	0.9534238085056032	-0.4450442095055541	0.0	0.9678422257233115	-0.47882490606991274	0.0	0.9423849366198376	-0.5186248925211671	0.0	0.9918172670478864	-0.49386984986711885	0.0	1.0142255659033093	-0.4592349603889646	0.0	0.9382752526134538	-0.5183756670228693	0.0	0.9910815548096447	-0.49854448991394384	0.0	1.01414637717731	-0.4653205189707923	0.0
25	0.8386075949367088	0.9452264989733851	-0.6386081036597899	0.0	0.9442114007372947	-0.6417807691643866	0.0	0.9839190748352964	-0.7426028347123794	0.0	0.9615553665299114	-0.8410870015589493	0.0	0.9860166793452706	-0.8580539833121797	0.0	0.9764962125099744	-0.8598660265978981	0.0	0.9525213222118848	-0.8509309073689929	0.0	0.9479280035603039	-0.6404994311092682	0.0	0.9810438411546551	-0.7413810018922254	0.0	0.9616339470960027	-0.8364440362114942	0.0	0.9882816642075058	-0.8451963604249891	0.0	0.9842859263924829	-0.8477397918825555	0.0	0.9465070726596475	-0.8424164386699583	0.0	0.9341043150276239	-0.4967141661511697	0.0	0.9351783004547161	-0.43056626840634404	0.0	0.9515598004428701	-0.46255254824428155	0.0	0.931212138822679	-0.501858974920277	0.0	0.9682813231906615	-0.45868772119183787	0.0	0.9765150631726087	-0.41608618225020383	0.0	0.9303585158589721	-0.5024296929186282	0.0	0.972800048806357	-0.4678681644332941	0.0	0.9811053528807471	-0.4260201957790834	0.0
